<svg width="156" height="29" viewBox="0 0 156 29" fill="none" xmlns="http://www.w3.org/2000/svg">
<path d="M10.96 0.519999L17.76 7.32H28.48V0.519999H10.96ZM28.12 17L28 16.72C28 16.68 28 16.64 28 16.6L27.88 16.24L27.84 16.16C27.76 16 27.68 15.84 27.6 15.68L27.56 15.64C27.44 15.4 27.32 15.16 27.2 14.92L27.16 14.84C27.12 14.8 27.08 14.76 27.04 14.72C27 14.68 26.96 14.64 26.92 14.6C26.88 14.52 26.84 14.44 26.8 14.36L26.76 14.32C26.72 14.28 26.68 14.24 26.64 14.2C26.64 14.16 26.64 14.12 26.64 14.08L26.56 14C26.52 13.96 26.48 13.92 26.44 13.88C26.32 13.76 26.2 13.64 26.08 13.52C26.04 13.48 26 13.44 25.96 13.4C25.92 13.36 25.88 13.36 25.84 13.36L25.76 13.28C25.72 13.24 25.68 13.2 25.64 13.16C25.56 13.08 25.48 13.04 25.44 13C25.28 12.88 25.12 12.76 24.96 12.64L24.92 12.6C24.84 12.56 24.76 12.52 24.68 12.48C24.6 12.44 24.52 12.4 24.44 12.36L24.24 12.24C24.12 12.16 24 12.08 23.88 12C23.8 11.96 23.72 11.92 23.64 11.88C23.6 11.88 23.56 11.88 23.52 11.88C23.4 11.84 23.28 11.8 23.16 11.76H23.12C23.04 11.72 22.96 11.68 22.88 11.64H22.84C22.68 11.6 22.52 11.56 22.36 11.52H22.32C22.24 11.48 22.16 11.44 22.08 11.4C22.04 11.4 22 11.4 21.96 11.4L21.88 11.36H21.84C21.76 11.32 21.68 11.28 21.6 11.28H21.56C21.48 11.28 21.4 11.28 21.32 11.28H21.2C21.12 11.28 21.04 11.28 20.96 11.28H20.92C20.88 11.28 20.84 11.28 20.8 11.28C20.72 11.28 20.64 11.28 20.56 11.28C20.52 11.28 20.48 11.28 20.44 11.28H20.4C20.36 11.28 20.32 11.28 20.28 11.28C20.2 11.28 20.12 11.28 20.04 11.28H19.96C19.92 11.28 19.88 11.28 19.84 11.28H19.8C19.76 11.28 19.72 11.28 19.68 11.28H9.32C8.36 11.28 7.56 10.48 7.56 9.52C7.56 8.56 8.36 7.76 9.32 7.76H14.4L7.72 1.08L7.44 1.16C7.24 1.2 7.04 1.24 6.84 1.32C5.48 1.72 4.24 2.48 3.24 3.48C2.24 4.48 1.48 5.72 1.08 7.08C0.84 7.88 0.72 8.72 0.72 9.56C0.72 10.4 0.84 11.24 1.08 12.04C1.48 13.4 2.24 14.64 3.24 15.64C4.24 16.64 5.48 17.4 6.84 17.8C7.64 18.04 8.48 18.16 9.32 18.16H19.68C20.64 18.16 21.44 18.96 21.44 19.92C21.44 20.88 20.64 21.68 19.68 21.68H0.76V28.48H19.68C21.56 28.48 23.36 27.88 24.84 26.76C26.28 25.68 27.36 24.12 27.88 22.4C28.12 21.6 28.24 20.76 28.24 19.92C28.24 19.08 28.12 18.24 27.88 17.44L28.12 17ZM51.1644 4.52C48.5644 1.92 45.1244 0.479999 41.4444 0.479999C38.3644 0.479999 35.4444 1.48 33.0044 3.36L32.5244 3.76L37.3644 8.6L37.7244 8.36C38.8044 7.68 40.0844 7.32 41.4044 7.32C43.2444 7.32 44.9644 8.04 46.2844 9.36C47.6044 10.68 48.3244 12.4 48.3244 14.24C48.3244 15.56 47.9644 16.84 47.2844 17.92L47.0444 18.28L51.8844 23.12L52.2844 22.64C54.1644 20.2 55.1644 17.28 55.1644 14.2C55.1644 10.52 53.7244 7.08 51.1244 4.48L51.1644 4.52ZM45.0844 20.04C44.0044 20.72 42.7244 21.08 41.4044 21.08C39.5644 21.08 37.8444 20.36 36.5244 19.04C35.2044 17.72 34.4844 16 34.4844 14.16C34.4844 12.84 34.8444 11.56 35.5244 10.48L35.7644 10.12L30.9244 5.28L30.5244 5.76C28.6444 8.2 27.6444 11.12 27.6444 14.2C27.6444 17.88 29.0844 21.32 31.6844 23.92C34.2844 26.52 37.7244 27.96 41.4044 27.96C44.4844 27.96 47.4044 26.96 49.8444 25.08L50.3244 24.68L45.4844 19.84L45.0844 20.04ZM71.8888 17.68C72.0088 17.68 72.1288 17.68 72.2488 17.68H72.3288C74.5288 17.64 76.6088 16.76 78.1688 15.2C79.6888 13.68 80.5688 11.64 80.6488 9.44C80.6888 9.16 80.6888 8.88 80.6888 8.6C80.6888 7.96 80.6088 7.32 80.4488 6.72C80.0888 5.28 79.3688 3.96 78.3288 2.92C77.2088 1.8 75.8088 1.04 74.2488 0.719998C73.7288 0.599998 73.2088 0.559998 72.6888 0.559998H54.3288V10.6L61.1288 17.4V17.36L71.6888 27.88L71.8488 28.04H82.4088L71.8888 17.68ZM71.4088 10.92H64.8888L61.6488 7.68H73.5688C73.6088 7.8 73.6488 7.92 73.6888 8.04C73.7288 8.12 73.7288 8.2 73.7288 8.28C73.7288 8.32 73.7288 8.36 73.7288 8.4C73.7288 8.44 73.7288 8.48 73.7288 8.52C73.7288 8.88 73.6488 9.2 73.5288 9.52C73.4888 9.6 73.4488 9.68 73.4088 9.76C73.4088 9.8 73.4088 9.84 73.3688 9.88C73.3288 9.92 73.2888 9.96 73.2488 10C73.2088 10.04 73.1688 10.08 73.1288 10.12C72.8888 10.36 72.6088 10.56 72.2888 10.68C72.1688 10.72 72.0488 10.76 71.9288 10.8C71.7688 10.84 71.6088 10.84 71.4488 10.84L71.4088 10.92ZM54.4088 27.96H61.2088V20.4L54.4088 13.6V27.96ZM91.92 28H98.72V20.56L91.92 13.76V28ZM81.6 0.519999V7.32H91.92V10.64L98.72 17.44V7.32H109.08V0.519999H81.6ZM104.691 28H112.651L120.411 15.24L116.451 8.68L104.691 28ZM121.691 0.0399976L117.731 6.56L129.051 25.32L130.691 28.04H138.651L121.691 0.0399976ZM144.488 21.2H143.448V0.519999H136.648V28H151.288L144.648 21.36L144.488 21.2ZM147.608 21.2L154.408 28H155.768V21.2H147.608Z" fill="url(#paint0_linear_1_3)" style="mix-blend-mode:color-burn"/>
<defs>
<linearGradient id="paint0_linear_1_3" x1="168" y1="-3" x2="-1" y2="-3" gradientUnits="userSpaceOnUse">
<stop stop-color="#000959"/>
<stop offset="1" stop-color="white"/>
</linearGradient>
</defs>
</svg>
